#N canvas 2 22 950 719 10;
#X msg 2 37 \; pd dsp \$1;
#X obj 56 270 moses 1;
#X obj 56 290 bng 15 250 50 0 empty empty empty 17 7 0 10 -262144 -1
-1;
#X obj 95 290 bng 15 250 50 0 empty empty empty 17 7 0 10 -262144 -1
-1;
#X obj 56 252 tgl 15 0 empty empty empty 17 7 0 10 -262144 -1 -1 0
1;
#X obj 56 156 bng 15 250 50 0 empty empty empty 17 7 0 10 -262144 -1
-1;
#X obj 56 232 metro;
#X obj 86 195 hsl 128 15 2000 1 0 0 empty empty empty -2 -8 0 10 -227954
-1 -1 11600 1;
#X floatatom 83 213 5 0 0 0 - - -;
#X msg 56 308 1;
#X msg 95 308 0;
#X msg 74 176 stop;
#X obj 186 49 bng 25 250 50 0 empty empty Start 0 -5 0 10 -162280 -1
-1;
#X obj 234 49 bng 25 250 50 0 empty empty Stop 0 -5 0 10 -99865 -1
-1;
#N canvas 0 22 450 300 (subpatch) 0;
#X array TremWF 400 float 1;
#A 0 0 0 0 0 0 0 0 0 0 0 0 0 0 0 0 0 0 0 0 0 0 0 0 0 0 0 0 0 0 0 0
0 0 0 0 0 0 0 0 0 0 0 0 0 0 0 0 0 0 0 0 0 0 0 0 0 0 0 0 0 0 0 0 0 0
0 0 0 0 0 0 0 0 0 0 0 0 0 0 0 0 0 0 0 0 0 0 0 0 0 0 0 0 0 0 0 0 0 0
0 0 0 0 0 0 0 0 0 0 0 0 0 0 0 0 0 0 0 0 0 0 0 0 0 0 0 0 0 0 0 0 0 0
0 0 0 0 0 0 0 0 0 0 0 0 0 0 0 0 0 0 0 0 0 0 0 0 0 0 0 0 0 0 0 0 0 0
0 0 0 0 0 0 0 0 0 0 0 0 0 0 0 0 0 0 0 0 0 0 0 0 0 0 0 0 0 0 0 0 0 0
0 0 0 0 0 0 0 0 0 0 0 0 0 0 0 0 0 0 0 0 0 0 0 0 0 0 0 0 0 0 0 0 0 0
0 0 0 0 0 0 0 0 0 0 0 0 0 0 0 0 0 0 0 0 0 0 0 0 0 0 0 0 0 0 0 0 0 0
0 0 0 0 0 0 0 0 0 0 0 0 0 0 0 0 0 0 0 0 0 0 0 0 0 0 0 0 0 0 0 0 0 0
0 0 0 0 0 0 0 0 0 0 0 0 0 0 0 0 0 0 0 0 0 0 0 0 0 0 0 0 0 0 0 0 0 0
0 0 0 0 0 0 0 0 0 0 0 0 0 0 0 0 0 0 0 0 0 0 0 0 0 0 0 0 0 0 0 0 0 0
0 0 0 0 0 0 0 0 0 0 0 0 0 0 0 0 0 0 0 0 0 0 0 0 0 0 0 0 0;
#X coords 0 1 399 -1 400 150 1;
#X restore 348 552 graph;
#X obj 397 532 tabwrite~ TremWF;
#X obj 397 512 metro 100;
#X obj 397 494 tgl 15 0 empty empty empty 17 7 0 10 -262144 -1 -1 0
1;
#X floatatom 97 583 6 0 0 0 - - -;
#X msg 97 602 \$1 50;
#X obj 56 356 line~;
#X obj 348 512 r~ TrWF;
#X obj 97 622 line~;
#X obj 97 545 knob 32 32 0 1 0 0 empty empty MASTERvol -67 30 32 12
-258113 -1 -1 0 1;
#X obj 186 77 s START;
#X obj 56 136 r START;
#X obj 234 77 s STOP;
#X obj 74 156 r STOP;
#X obj 97 503 r STOP;
#X msg 97 523 0;
#X obj 678 5 cnv 15 265 20 empty empty ChannelChopperCC2:DimitriPaile2011
15 10 0 12 -259648 -66577 0;
#X obj 445 454 r STOP;
#X msg 445 474 0;
#X obj 397 454 r START;
#X msg 397 474 1;
#X obj 12 659 *~;
#X obj 292 521 r~ VU;
#X obj 292 540 env~;
#X obj 293 580 vu 20 120 empty empty -1 -8 0 10 -66577 -1 1 0;
#X obj 12 391 *~;
#X obj 292 559 - 100;
#X obj 214 317 knob 32 32 0 1 0 0 empty empty empty 0 -8 32 8 -262144
-1 -1 3100 1;
#X floatatom 214 355 6 0 0 0 - - -;
#X obj 214 394 line;
#X obj 12 411 *~;
#X msg 214 374 \$1 50;
#X msg 56 336 \$1;
#X obj 158 265 hsl 128 15 2000 50 0 0 empty empty empty -2 -8 0 10
-164433 -1 -1 10100 1;
#X floatatom 155 283 5 0 0 0 - - -;
#X msg 821 643 start;
#X msg 821 663 stop;
#X obj 2 5 tgl 30 0 empty empty Audio:On/Off 33 26 0 10 -259648 -1
-1 0 1;
#X obj 12 136 adc~ 1;
#X text 212 300 Channel1 Vol.;
#X text 202 249 Channel1 Depth;
#X text 137 178 Channel1 Rate;
#X obj 336 270 moses 1;
#X obj 336 290 bng 15 250 50 0 empty empty empty 17 7 0 10 -262144
-1 -1;
#X obj 375 290 bng 15 250 50 0 empty empty empty 17 7 0 10 -262144
-1 -1;
#X obj 336 252 tgl 15 0 empty empty empty 17 7 0 10 -262144 -1 -1 1
1;
#X obj 336 156 bng 15 250 50 0 empty empty empty 17 7 0 10 -262144
-1 -1;
#X obj 336 232 metro;
#X obj 366 195 hsl 128 15 2000 1 0 0 empty empty empty -2 -8 0 10 -227954
-1 -1 10900 1;
#X floatatom 363 213 5 0 0 0 - - -;
#X msg 336 308 1;
#X msg 375 308 0;
#X msg 354 176 stop;
#X obj 336 356 line~;
#X obj 336 136 r START;
#X obj 354 156 r STOP;
#X obj 292 391 *~;
#X obj 494 317 knob 32 32 0 1 0 0 empty empty empty 0 -8 32 8 -262144
-1 -1 3100 1;
#X floatatom 494 355 6 0 0 0 - - -;
#X obj 494 394 line;
#X obj 292 411 *~;
#X msg 494 374 \$1 50;
#X msg 336 336 \$1;
#X obj 438 265 hsl 128 15 2000 50 0 0 empty empty empty -2 -8 0 10
-164433 -1 -1 11700 1;
#X floatatom 435 283 5 0 0 0 - - -;
#X obj 292 136 adc~ 2;
#X text 417 178 Channel2 Rate;
#X text 482 249 Channel2 Depth;
#X text 492 300 Channel2 Vol.;
#X obj 12 431 s~ Ch1out;
#X obj 292 431 s~ Ch2out;
#X obj 811 572 r~ Ch2out;
#X obj 754 552 r~ Ch1out;
#X text 677 25 Version 1;
#X obj 754 685 writesf~ 2;
#X obj 12 632 r~ Ch1out;
#X obj 12 687 dac~ 1;
#X obj 142 632 r~ Ch2out;
#X obj 222 687 s~ TrWF;
#X obj 142 659 *~;
#X obj 185 687 s~ VU;
#X obj 142 687 dac~ 2;
#X obj 92 687 s~ TrWF;
#X obj 55 687 s~ VU;
#X msg 821 623 open CC2Recording2;
#X text 819 604 Record outupt;
#X text 528 52 1 Turn Audio On;
#X text 528 62 2 Click Start;
#X text 528 42 INSTRUCTIONS:;
#X text 528 73 3 Move the sliders;
#X text 528 93 5 Turn up the individual channel volume knobs;
#X text 528 83 4 Turn up the MASTERvol knob;
#X text 528 103 6 To record \, click the three message boxes below
'Record output' (bottom right corner). Rename file in the "open CC2..."
message box if you want.;
#X connect 1 0 2 0;
#X connect 1 1 3 0;
#X connect 2 0 9 0;
#X connect 2 0 47 0;
#X connect 3 0 10 0;
#X connect 3 0 47 0;
#X connect 4 0 1 0;
#X connect 5 0 6 0;
#X connect 6 0 4 0;
#X connect 7 0 8 0;
#X connect 8 0 6 1;
#X connect 9 0 46 0;
#X connect 10 0 46 0;
#X connect 11 0 6 0;
#X connect 12 0 24 0;
#X connect 13 0 26 0;
#X connect 16 0 15 0;
#X connect 17 0 16 0;
#X connect 18 0 19 0;
#X connect 19 0 22 0;
#X connect 20 0 39 1;
#X connect 21 0 15 0;
#X connect 22 0 35 1;
#X connect 22 0 93 1;
#X connect 23 0 18 0;
#X connect 25 0 5 0;
#X connect 27 0 11 0;
#X connect 28 0 29 0;
#X connect 29 0 23 0;
#X connect 31 0 32 0;
#X connect 32 0 17 0;
#X connect 33 0 34 0;
#X connect 34 0 17 0;
#X connect 35 0 90 0;
#X connect 35 0 97 0;
#X connect 35 0 96 0;
#X connect 36 0 37 0;
#X connect 37 0 40 0;
#X connect 39 0 44 0;
#X connect 40 0 38 0;
#X connect 41 0 42 0;
#X connect 42 0 45 0;
#X connect 43 0 44 1;
#X connect 44 0 83 0;
#X connect 45 0 43 0;
#X connect 46 0 20 0;
#X connect 47 0 48 0;
#X connect 48 0 20 1;
#X connect 49 0 88 0;
#X connect 50 0 88 0;
#X connect 51 0 0 0;
#X connect 52 0 39 0;
#X connect 56 0 57 0;
#X connect 56 1 58 0;
#X connect 57 0 64 0;
#X connect 57 0 77 0;
#X connect 58 0 65 0;
#X connect 58 0 77 0;
#X connect 59 0 56 0;
#X connect 60 0 61 0;
#X connect 61 0 59 0;
#X connect 62 0 63 0;
#X connect 63 0 61 1;
#X connect 64 0 76 0;
#X connect 65 0 76 0;
#X connect 66 0 61 0;
#X connect 67 0 70 1;
#X connect 68 0 60 0;
#X connect 69 0 66 0;
#X connect 70 0 74 0;
#X connect 71 0 72 0;
#X connect 72 0 75 0;
#X connect 73 0 74 1;
#X connect 74 0 84 0;
#X connect 75 0 73 0;
#X connect 76 0 67 0;
#X connect 77 0 78 0;
#X connect 78 0 67 1;
#X connect 79 0 70 0;
#X connect 85 0 88 1;
#X connect 86 0 88 0;
#X connect 89 0 35 0;
#X connect 91 0 93 0;
#X connect 93 0 94 0;
#X connect 93 0 92 0;
#X connect 93 0 95 0;
#X connect 98 0 88 0;
